<svg width="25" height="24" viewBox="0 0 25 24" fill="none" xmlns="http://www.w3.org/2000/svg">
<g clip-path="url(#clip0_1573_673)">
<path d="M7.06421 9.66926C7.06421 9.66926 6.95188 8.87355 8.54648 7.33344C9.49068 6.4215 10.1494 5.85082 10.6319 4.51016C10.722 4.25956 10.7428 3.08715 10.7525 2.7228C10.7857 1.48126 11.4204 0.529297 12.4744 0.529297C13.4548 0.529297 14.2835 1.38638 14.4091 2.53199C14.4852 3.227 14.5459 3.95112 14.5357 4.42886C14.5098 5.61697 13.9153 8.81605 13.9153 8.81605H22.45C23.2907 8.81605 23.9721 9.61917 23.9721 10.6098C23.9721 11.542 23.3661 12.3188 22.5776 12.3971L21.8657 12.4678C21.8172 12.4726 21.8151 12.5551 21.8631 12.5636L22.5935 12.6922C23.2668 12.8107 23.7652 13.4923 23.7652 14.2945C23.7652 15.1894 23.1497 15.9147 22.3904 15.9147H21.5236C21.4566 15.9147 21.4481 16.0292 21.5141 16.0429L22.1674 16.1784C22.7925 16.3078 23.2482 16.9476 23.2482 17.6954C23.2482 18.5461 22.663 19.2356 21.9412 19.2356H20.8432C20.7688 19.2356 20.7564 19.3614 20.8289 19.3815L20.976 19.4221C21.5497 19.5806 21.9555 20.1836 21.9555 20.878C21.9555 21.7039 21.3873 22.3735 20.6864 22.3735H9.00324C9.00324 22.3735 8.13592 22.4323 7.75941 22.1332C7.06421 21.581 7.06421 20.9359 7.06421 20.9359V9.66891V9.66926Z" fill="white" stroke="#10725B" stroke-width="1.05813" stroke-miterlimit="10"/>
<path d="M7.05975 10.0333V9.47864C7.05975 9.0568 6.7178 8.71484 6.29596 8.71484H2.22568C1.56382 8.71484 1.02734 9.21957 1.02734 9.84211V21.602C1.02734 22.2245 1.56382 22.7293 2.22568 22.7293H6.29596C6.7178 22.7293 7.05975 22.3873 7.05975 21.9655V10.0331V10.0333Z" fill="#78D1B5" stroke="#10725B" stroke-width="1.05813" stroke-miterlimit="10"/>
<path d="M4.26334 21.0123C4.6977 20.8914 4.95183 20.4413 4.83097 20.007C4.7101 19.5726 4.26001 19.3185 3.82565 19.4394C3.3913 19.5602 3.13717 20.0103 3.25803 20.4447C3.3789 20.879 3.82899 21.1332 4.26334 21.0123Z" fill="white"/>
<path d="M5.21219 9.2365L6.54244 9.24656V22.2364H2.17394C1.82335 22.2364 1.53906 21.9521 1.53906 21.6015V21.3294H3.91986C4.63357 21.3294 5.21236 20.7507 5.21236 20.0368V9.23633L5.21219 9.2365Z" fill="#1EC471"/>
<path d="M12.2562 1.0808C12.2562 1.0808 12.9161 1.51199 12.9593 3.08402C13.0434 6.1362 12.1071 7.89728 11.6192 8.60217C11.5139 8.75419 11.6234 8.96159 11.8084 8.95982L13.3649 8.94554C13.3649 8.94554 13.9873 6.09969 14.01 4.45959C14.022 3.59757 14.0172 2.25268 13.5831 1.682C13.2032 1.18291 12.9628 1.09121 12.6364 1.06228C12.4124 1.04253 12.2563 1.08098 12.2563 1.08098L12.2562 1.0808Z" fill="#E2E0E0"/>
<path d="M20.6124 9.3423C20.6124 9.3423 21.5194 9.46328 21.8974 10.083C22.1659 10.5235 22.1996 11.0605 21.9275 11.5191C21.7691 11.7859 21.0466 12.0592 20.6332 12.1977C20.5094 12.2391 20.4772 12.3992 20.5756 12.4849C20.9181 12.7832 21.517 13.3655 21.5496 13.8168C21.6252 14.8597 21.0962 15.4392 20.693 15.7567C20.6555 15.7863 20.6218 15.8126 20.5914 15.8359C20.4629 15.9352 20.4569 16.127 20.5793 16.2339C20.8787 16.4951 21.3378 16.9432 21.3531 17.2481C21.4037 18.2606 20.7787 18.4951 20.3631 18.6842C20.2643 18.7292 20.0633 18.8124 19.9867 18.8327C19.5326 18.9531 19.525 18.9947 19.834 19.2963C20.0887 19.545 20.2428 20.1113 20.1439 20.4527C20.0329 20.8355 18.7348 20.9957 18.1486 21.0422C16.4753 21.1752 8.46667 21.3824 7.62775 20.5433C7.31931 20.2349 7.49531 21.8887 7.49531 21.8887H21.551L21.9386 19.236L23.1728 18.2036L22.7439 16.2202L23.6055 14.7236L23.1671 12.7585L23.8776 11.2247L23.6509 9.26664L22.109 8.81641L20.6124 9.3423Z" fill="#E2E0E0"/>
<path d="M7.06421 9.66926C7.06421 9.66926 6.95188 8.87355 8.54648 7.33343C9.49068 6.4215 10.1494 5.85082 10.6319 4.51016C10.722 4.25956 10.7428 3.08715 10.7525 2.7228C10.7857 1.48126 11.4204 0.529297 12.4744 0.529297C13.4548 0.529297 14.2835 1.38638 14.4091 2.53199C14.4852 3.227 14.5459 3.95112 14.5357 4.42886C14.5098 5.61697 13.9153 8.81605 13.9153 8.81605H22.45C23.2907 8.81605 23.9721 9.61917 23.9721 10.6098C23.9721 11.542 23.3661 12.3188 22.5776 12.3971L21.8657 12.4678C21.8172 12.4726 21.8151 12.5551 21.8631 12.5636L22.5935 12.6922C23.2668 12.8107 23.7652 13.4923 23.7652 14.2945C23.7652 15.1894 23.1497 15.9147 22.3904 15.9147H21.5236C21.4566 15.9147 21.4481 16.0292 21.5141 16.0429L22.1674 16.1784C22.7925 16.3078 23.2482 16.9476 23.2482 17.6954C23.2482 18.5461 22.663 19.2356 21.9412 19.2356H20.8432C20.7688 19.2356 20.7564 19.3614 20.8289 19.3815L20.976 19.4221C21.5497 19.5806 21.9555 20.1836 21.9555 20.878C21.9555 21.7039 21.3873 22.3735 20.6864 22.3735H9.00324C9.00324 22.3735 8.13592 22.4323 7.75941 22.1332C7.06421 21.581 7.06421 20.9359 7.06421 20.9359V9.66891V9.66926Z" stroke="#10725B" stroke-width="1.05813" stroke-miterlimit="10"/>
<path d="M22.5 4.12891L20.6452 4.77414L20 6.62891L19.3548 4.77414L17.5 4.12891L19.3548 3.48367L20 1.62891L20.6452 3.48367L22.5 4.12891Z" fill="#6BBFA5"/>
<path d="M6.5 5.62891L5.01619 6.14509L4.5 7.62891L3.98381 6.14509L2.5 5.62891L3.98381 5.11272L4.5 3.62891L5.01619 5.11272L6.5 5.62891Z" fill="#6BBFA5"/>
<path d="M9.5 2.12891L8.38714 2.51605L8 3.62891L7.61286 2.51605L6.5 2.12891L7.61286 1.74177L8 0.628906L8.38714 1.74177L9.5 2.12891Z" fill="#6BBFA5"/>
</g>
<defs>
<clipPath id="clip0_1573_673">
<rect width="24" height="23.2579" fill="white" transform="translate(0.5)"/>
</clipPath>
</defs>
</svg>
